STARTFONT 2.1
FONT -Adobe-Helvetica_sub-Medium-R-Normal--14-140-75-75-P-77-ISO8859-2
SIZE 14 75 75
FONTBOUNDINGBOX 15 17 -1 -6
COMMENT $XConsortium: helvR14.bdf,v 1.14 95/01/26 18:03:02 gildea Exp $
COMMENT 
COMMENT +
COMMENT  Copyright 1984-1989, 1994 Adobe Systems Incorporated.
COMMENT  Copyright 1988, 1994 Digital Equipment Corporation.
COMMENT
COMMENT  Adobe is a trademark of Adobe Systems Incorporated which may be
COMMENT  registered in certain jurisdictions.
COMMENT  Permission to use these trademarks is hereby granted only in
COMMENT  association with the images described in this file.
COMMENT
COMMENT  Permission to use, copy, modify, distribute and sell this software
COMMENT  and its documentation for any purpose and without fee is hereby
COMMENT  granted, provided that the above copyright notices appear in all
COMMENT  copies and that both those copyright notices and this permission
COMMENT  notice appear in supporting documentation, and that the names of
COMMENT  Adobe Systems and Digital Equipment Corporation not be used in
COMMENT  advertising or publicity pertaining to distribution of the software
COMMENT  without specific, written prior permission.  Adobe Systems and
COMMENT  Digital Equipment Corporation make no representations about the
COMMENT  suitability of this software for any purpose.  It is provided "as
COMMENT  is" without express or implied warranty.
COMMENT -
COMMENT  
COMMENT  Translation to ISO8859-2 by Cub Soft;  Petr.Kolar@vslib.cz
COMMENT  
STARTPROPERTIES 28
FOUNDRY "Adobe"
FAMILY_NAME "Helvetica_sub"
WEIGHT_NAME "Medium"
SLANT "R"
SETWIDTH_NAME "Normal"
ADD_STYLE_NAME ""
PIXEL_SIZE 14
POINT_SIZE 140
RESOLUTION_X 75
RESOLUTION_Y 75
SPACING "P"
AVERAGE_WIDTH 77
CHARSET_REGISTRY "ISO8859"
CHARSET_ENCODING "2"
CAP_HEIGHT 8
X_HEIGHT 5
FONT_ASCENT 10
FONT_DESCENT 6
FACE_NAME "Helvetica"

STARTCHAR space
ENCODING 32
SWIDTH 278 0
DWIDTH 4 0
BBX 1 1 0 -3
BITMAP
00
ENDCHAR
STARTCHAR exclam
ENCODING 33
SWIDTH 278 0
DWIDTH 4 0
BBX 1 11 2 -3
BITMAP
80
80
80
80
80
80
80
80
00
80
80
ENDCHAR
STARTCHAR quotedbl
ENCODING 34
SWIDTH 355 0
DWIDTH 5 0
BBX 3 3 1 5
BITMAP
a0
a0
a0
ENDCHAR
STARTCHAR numbersign
ENCODING 35
SWIDTH 556 0
DWIDTH 8 0
BBX 7 10 0 -3
BITMAP
14
14
14
7e
28
28
fc
50
50
50
ENDCHAR
STARTCHAR dollar
ENCODING 36
SWIDTH 556 0
DWIDTH 8 0
BBX 7 14 0 -5
BITMAP
10
10
7c
92
92
50
38
14
12
92
92
7c
10
10
ENDCHAR
STARTCHAR percent
ENCODING 37
SWIDTH 889 0
DWIDTH 12 0
BBX 11 10 0 -3
BITMAP
7080
8900
8900
7200
0200
0400
09c0
1220
1220
21c0
ENDCHAR
STARTCHAR ampersand
ENCODING 38
SWIDTH 667 0
DWIDTH 10 0
BBX 8 10 1 -3
BITMAP
30
48
48
30
20
52
8a
84
8a
71
ENDCHAR
STARTCHAR apostrophe
ENCODING 39
SWIDTH 222 0
DWIDTH 3 0
BBX 2 3 1 5
BITMAP
c0
40
80
ENDCHAR
STARTCHAR parenleft
ENCODING 40
SWIDTH 333 0
DWIDTH 5 0
BBX 3 14 1 -6
BITMAP
20
40
40
80
80
80
80
80
80
80
80
40
40
20
ENDCHAR
STARTCHAR parenright
ENCODING 41
SWIDTH 333 0
DWIDTH 5 0
BBX 3 14 1 -6
BITMAP
80
40
40
20
20
20
20
20
20
20
20
40
40
80
ENDCHAR
STARTCHAR asterisk
ENCODING 42
SWIDTH 389 0
DWIDTH 7 0
BBX 5 4 1 3
BITMAP
20
f8
20
50
ENDCHAR
STARTCHAR plus
ENCODING 43
SWIDTH 584 0
DWIDTH 9 0
BBX 7 7 1 -2
BITMAP
10
10
10
fe
10
10
10
ENDCHAR
STARTCHAR comma
ENCODING 44
SWIDTH 278 0
DWIDTH 3 0
BBX 2 4 0 -5
BITMAP
40
40
40
80
ENDCHAR
STARTCHAR minus
ENCODING 45
SWIDTH 584 0
DWIDTH 9 0
BBX 7 1 1 1
BITMAP
fe
ENDCHAR
STARTCHAR period
ENCODING 46
SWIDTH 278 0
DWIDTH 3 0
BBX 1 2 1 -3
BITMAP
80
80
ENDCHAR
STARTCHAR slash
ENCODING 47
SWIDTH 278 0
DWIDTH 4 0
BBX 4 11 0 -3
BITMAP
10
10
20
20
20
40
40
40
80
80
80
ENDCHAR
STARTCHAR zero
ENCODING 48
SWIDTH 556 0
DWIDTH 8 0
BBX 6 10 1 -3
BITMAP
78
84
84
84
84
84
84
84
84
78
ENDCHAR
STARTCHAR one
ENCODING 49
SWIDTH 556 0
DWIDTH 8 0
BBX 3 10 2 -3
BITMAP
20
e0
20
20
20
20
20
20
20
20
ENDCHAR
STARTCHAR two
ENCODING 50
SWIDTH 556 0
DWIDTH 8 0
BBX 6 10 1 -3
BITMAP
78
84
84
08
10
20
40
80
80
fc
ENDCHAR
STARTCHAR three
ENCODING 51
SWIDTH 556 0
DWIDTH 8 0
BBX 6 10 1 -3
BITMAP
78
84
84
04
38
04
04
84
84
78
ENDCHAR
STARTCHAR four
ENCODING 52
SWIDTH 556 0
DWIDTH 8 0
BBX 7 10 1 -3
BITMAP
0c
14
24
24
44
84
fe
04
04
04
ENDCHAR
STARTCHAR five
ENCODING 53
SWIDTH 556 0
DWIDTH 8 0
BBX 6 10 1 -3
BITMAP
fc
80
80
80
f8
04
04
84
84
78
ENDCHAR
STARTCHAR six
ENCODING 54
SWIDTH 556 0
DWIDTH 8 0
BBX 6 10 1 -3
BITMAP
78
84
80
80
b8
c4
84
84
84
78
ENDCHAR
STARTCHAR seven
ENCODING 55
SWIDTH 556 0
DWIDTH 8 0
BBX 6 10 1 -3
BITMAP
fc
04
08
08
10
10
20
20
40
40
ENDCHAR
STARTCHAR eight
ENCODING 56
SWIDTH 556 0
DWIDTH 8 0
BBX 6 10 1 -3
BITMAP
78
84
84
84
78
84
84
84
84
78
ENDCHAR
STARTCHAR nine
ENCODING 57
SWIDTH 556 0
DWIDTH 8 0
BBX 6 10 1 -3
BITMAP
78
84
84
84
84
7c
04
84
84
78
ENDCHAR
STARTCHAR colon
ENCODING 58
SWIDTH 278 0
DWIDTH 3 0
BBX 1 8 1 -3
BITMAP
80
80
00
00
00
00
80
80
ENDCHAR
STARTCHAR semicolon
ENCODING 59
SWIDTH 278 0
DWIDTH 4 0
BBX 2 10 0 -5
BITMAP
40
40
00
00
00
00
40
40
40
80
ENDCHAR
STARTCHAR less
ENCODING 60
SWIDTH 584 0
DWIDTH 8 0
BBX 6 5 1 -1
BITMAP
0c
30
c0
30
0c
ENDCHAR
STARTCHAR equal
ENCODING 61
SWIDTH 584 0
DWIDTH 9 0
BBX 6 3 1 0
BITMAP
fc
00
fc
ENDCHAR
STARTCHAR greater
ENCODING 62
SWIDTH 584 0
DWIDTH 8 0
BBX 6 5 1 -1
BITMAP
c0
30
0c
30
c0
ENDCHAR
STARTCHAR question
ENCODING 63
SWIDTH 556 0
DWIDTH 8 0
BBX 6 11 1 -3
BITMAP
30
cc
84
84
04
08
10
20
00
20
20
ENDCHAR
STARTCHAR at
ENCODING 64
SWIDTH 1015 0
DWIDTH 13 0
BBX 11 12 1 -4
BITMAP
0f00
30c0
4020
46a0
8920
9120
9120
9340
8d80
4000
6080
1f00
ENDCHAR
STARTCHAR A
ENCODING 65
SWIDTH 667 0
DWIDTH 11 0
BBX 9 11 1 -3
BITMAP
0800
0800
1400
1400
2200
2200
4100
7f00
4100
8080
8080
ENDCHAR
STARTCHAR B
ENCODING 66
SWIDTH 667 0
DWIDTH 9 0
BBX 7 11 1 -3
BITMAP
fc
86
82
82
82
fc
82
82
82
82
fc
ENDCHAR
STARTCHAR C
ENCODING 67
SWIDTH 722 0
DWIDTH 10 0
BBX 8 11 1 -3
BITMAP
1c
63
41
80
80
80
80
80
41
63
1c
ENDCHAR
STARTCHAR D
ENCODING 68
SWIDTH 722 0
DWIDTH 10 0
BBX 8 11 1 -3
BITMAP
f8
86
82
81
81
81
81
81
82
86
f8
ENDCHAR
STARTCHAR E
ENCODING 69
SWIDTH 667 0
DWIDTH 9 0
BBX 7 11 1 -3
BITMAP
fe
80
80
80
80
fc
80
80
80
80
fe
ENDCHAR
STARTCHAR F
ENCODING 70
SWIDTH 611 0
DWIDTH 9 0
BBX 7 11 1 -3
BITMAP
fe
80
80
80
80
fc
80
80
80
80
80
ENDCHAR
STARTCHAR G
ENCODING 71
SWIDTH 778 0
DWIDTH 11 0
BBX 9 11 1 -3
BITMAP
1e00
6180
4080
8000
8000
8780
8080
8080
4080
6380
1c80
ENDCHAR
STARTCHAR H
ENCODING 72
SWIDTH 722 0
DWIDTH 10 0
BBX 8 11 1 -3
BITMAP
81
81
81
81
81
ff
81
81
81
81
81
ENDCHAR
STARTCHAR I
ENCODING 73
SWIDTH 278 0
DWIDTH 5 0
BBX 1 11 2 -3
BITMAP
80
80
80
80
80
80
80
80
80
80
80
ENDCHAR
STARTCHAR J
ENCODING 74
SWIDTH 500 0
DWIDTH 8 0
BBX 6 11 1 -3
BITMAP
04
04
04
04
04
04
04
04
84
84
78
ENDCHAR
STARTCHAR K
ENCODING 75
SWIDTH 667 0
DWIDTH 10 0
BBX 8 11 1 -3
BITMAP
82
84
88
90
a0
e0
90
88
84
82
81
ENDCHAR
STARTCHAR L
ENCODING 76
SWIDTH 556 0
DWIDTH 8 0
BBX 6 11 1 -3
BITMAP
80
80
80
80
80
80
80
80
80
80
fc
ENDCHAR
STARTCHAR M
ENCODING 77
SWIDTH 833 0
DWIDTH 13 0
BBX 11 11 1 -3
BITMAP
8020
8020
c060
a0a0
a0a0
9120
9120
8a20
8a20
8420
8420
ENDCHAR
STARTCHAR N
ENCODING 78
SWIDTH 722 0
DWIDTH 10 0
BBX 8 11 1 -3
BITMAP
c1
c1
a1
91
91
89
89
85
85
83
83
ENDCHAR
STARTCHAR O
ENCODING 79
SWIDTH 778 0
DWIDTH 11 0
BBX 9 11 1 -3
BITMAP
1c00
6300
4100
8080
8080
8080
8080
8080
4100
6300
1c00
ENDCHAR
STARTCHAR P
ENCODING 80
SWIDTH 667 0
DWIDTH 9 0
BBX 7 11 1 -3
BITMAP
fc
86
82
82
86
fc
80
80
80
80
80
ENDCHAR
STARTCHAR Q
ENCODING 81
SWIDTH 778 0
DWIDTH 11 0
BBX 9 11 1 -3
BITMAP
1c00
6300
4100
8080
8080
8080
8880
8480
4300
6300
1c80
ENDCHAR
STARTCHAR R
ENCODING 82
SWIDTH 722 0
DWIDTH 9 0
BBX 7 11 1 -3
BITMAP
fc
86
82
82
84
f8
84
82
82
82
82
ENDCHAR
STARTCHAR S
ENCODING 83
SWIDTH 667 0
DWIDTH 9 0
BBX 7 11 1 -3
BITMAP
38
c6
82
80
60
18
06
02
82
c6
38
ENDCHAR
STARTCHAR T
ENCODING 84
SWIDTH 611 0
DWIDTH 9 0
BBX 9 11 0 -3
BITMAP
ff80
0800
0800
0800
0800
0800
0800
0800
0800
0800
0800
ENDCHAR
STARTCHAR U
ENCODING 85
SWIDTH 722 0
DWIDTH 10 0
BBX 8 11 1 -3
BITMAP
81
81
81
81
81
81
81
81
81
42
3c
ENDCHAR
STARTCHAR V
ENCODING 86
SWIDTH 667 0
DWIDTH 11 0
BBX 9 11 1 -3
BITMAP
8080
8080
4100
4100
2200
2200
2200
1400
1400
0800
0800
ENDCHAR
STARTCHAR W
ENCODING 87
SWIDTH 944 0
DWIDTH 15 0
BBX 13 11 1 -3
BITMAP
8208
8208
8508
4510
4510
4510
28a0
28a0
28a0
1040
1040
ENDCHAR
STARTCHAR X
ENCODING 88
SWIDTH 667 0
DWIDTH 10 0
BBX 8 11 1 -3
BITMAP
81
81
42
24
18
18
24
42
42
81
81
ENDCHAR
STARTCHAR Y
ENCODING 89
SWIDTH 667 0
DWIDTH 9 0
BBX 9 11 0 -3
BITMAP
8080
4100
4100
2200
2200
1400
0800
0800
0800
0800
0800
ENDCHAR
STARTCHAR Z
ENCODING 90
SWIDTH 611 0
DWIDTH 9 0
BBX 7 11 1 -3
BITMAP
fe
02
04
08
18
10
20
60
40
80
fe
ENDCHAR
STARTCHAR bracketleft
ENCODING 91
SWIDTH 278 0
DWIDTH 4 0
BBX 3 14 1 -6
BITMAP
e0
80
80
80
80
80
80
80
80
80
80
80
80
e0
ENDCHAR
STARTCHAR backslash
ENCODING 92
SWIDTH 278 0
DWIDTH 4 0
BBX 4 11 0 -3
BITMAP
80
80
40
40
40
20
20
20
10
10
10
ENDCHAR
STARTCHAR bracketright
ENCODING 93
SWIDTH 278 0
DWIDTH 4 0
BBX 3 14 0 -6
BITMAP
e0
20
20
20
20
20
20
20
20
20
20
20
20
e0
ENDCHAR
STARTCHAR asciicircum
ENCODING 94
SWIDTH 469 0
DWIDTH 7 0
BBX 7 4 0 3
BITMAP
10
28
44
82
ENDCHAR
STARTCHAR underscore
ENCODING 95
SWIDTH 556 0
DWIDTH 8 0
BBX 8 1 0 -6
BITMAP
ff
ENDCHAR
STARTCHAR grave
ENCODING 96
SWIDTH 333 0
DWIDTH 5 0
BBX 2 2 1 6
BITMAP
80
40
ENDCHAR
STARTCHAR a
ENCODING 97
SWIDTH 556 0
DWIDTH 8 0
BBX 7 8 1 -3
BITMAP
78
cc
04
7c
c4
84
cc
76
ENDCHAR
STARTCHAR b
ENCODING 98
SWIDTH 556 0
DWIDTH 8 0
BBX 6 11 1 -3
BITMAP
80
80
80
b8
cc
84
84
84
84
cc
b8
ENDCHAR
STARTCHAR c
ENCODING 99
SWIDTH 500 0
DWIDTH 8 0
BBX 6 8 1 -3
BITMAP
78
cc
80
80
80
84
cc
78
ENDCHAR
STARTCHAR d
ENCODING 100
SWIDTH 556 0
DWIDTH 8 0
BBX 6 11 1 -3
BITMAP
04
04
04
74
cc
84
84
84
84
cc
74
ENDCHAR
STARTCHAR e
ENCODING 101
SWIDTH 556 0
DWIDTH 8 0
BBX 6 8 1 -3
BITMAP
78
cc
84
fc
80
80
cc
78
ENDCHAR
STARTCHAR f
ENCODING 102
SWIDTH 278 0
DWIDTH 3 0
BBX 4 11 0 -3
BITMAP
30
40
40
e0
40
40
40
40
40
40
40
ENDCHAR
STARTCHAR g
ENCODING 103
SWIDTH 556 0
DWIDTH 8 0
BBX 6 11 1 -6
BITMAP
74
cc
84
84
84
84
cc
74
04
cc
78
ENDCHAR
STARTCHAR h
ENCODING 104
SWIDTH 556 0
DWIDTH 8 0
BBX 6 11 1 -3
BITMAP
80
80
80
b8
cc
84
84
84
84
84
84
ENDCHAR
STARTCHAR i
ENCODING 105
SWIDTH 222 0
DWIDTH 3 0
BBX 1 11 1 -3
BITMAP
80
80
00
80
80
80
80
80
80
80
80
ENDCHAR
STARTCHAR j
ENCODING 106
SWIDTH 222 0
DWIDTH 3 0
BBX 3 14 -1 -6
BITMAP
20
20
00
20
20
20
20
20
20
20
20
20
20
c0
ENDCHAR
STARTCHAR k
ENCODING 107
SWIDTH 500 0
DWIDTH 7 0
BBX 6 11 1 -3
BITMAP
80
80
80
88
90
a0
c0
a0
90
88
84
ENDCHAR
STARTCHAR l
ENCODING 108
SWIDTH 222 0
DWIDTH 3 0
BBX 1 11 1 -3
BITMAP
80
80
80
80
80
80
80
80
80
80
80
ENDCHAR
STARTCHAR m
ENCODING 109
SWIDTH 833 0
DWIDTH 11 0
BBX 9 8 1 -3
BITMAP
b300
cc80
8880
8880
8880
8880
8880
8880
ENDCHAR
STARTCHAR n
ENCODING 110
SWIDTH 556 0
DWIDTH 8 0
BBX 6 8 1 -3
BITMAP
b8
cc
84
84
84
84
84
84
ENDCHAR
STARTCHAR o
ENCODING 111
SWIDTH 556 0
DWIDTH 8 0
BBX 6 8 1 -3
BITMAP
78
cc
84
84
84
84
cc
78
ENDCHAR
STARTCHAR p
ENCODING 112
SWIDTH 556 0
DWIDTH 8 0
BBX 6 11 1 -6
BITMAP
b8
cc
84
84
84
84
cc
b8
80
80
80
ENDCHAR
STARTCHAR q
ENCODING 113
SWIDTH 556 0
DWIDTH 8 0
BBX 6 11 1 -6
BITMAP
74
cc
84
84
84
84
cc
74
04
04
04
ENDCHAR
STARTCHAR r
ENCODING 114
SWIDTH 333 0
DWIDTH 5 0
BBX 4 8 1 -3
BITMAP
b0
c0
80
80
80
80
80
80
ENDCHAR
STARTCHAR s
ENCODING 115
SWIDTH 500 0
DWIDTH 8 0
BBX 6 8 1 -3
BITMAP
78
84
80
78
0c
04
84
78
ENDCHAR
STARTCHAR t
ENCODING 116
SWIDTH 278 0
DWIDTH 4 0
BBX 4 10 0 -3
BITMAP
40
40
f0
40
40
40
40
40
40
30
ENDCHAR
STARTCHAR u
ENCODING 117
SWIDTH 556 0
DWIDTH 8 0
BBX 6 8 1 -3
BITMAP
84
84
84
84
84
84
cc
74
ENDCHAR
STARTCHAR v
ENCODING 118
SWIDTH 500 0
DWIDTH 8 0
BBX 6 8 1 -3
BITMAP
84
84
84
48
48
48
30
30
ENDCHAR
STARTCHAR w
ENCODING 119
SWIDTH 722 0
DWIDTH 10 0
BBX 9 8 0 -3
BITMAP
8880
8880
8880
4900
4900
5500
2200
2200
ENDCHAR
STARTCHAR x
ENCODING 120
SWIDTH 500 0
DWIDTH 7 0
BBX 7 8 0 -3
BITMAP
c6
44
28
10
10
28
44
c6
ENDCHAR
STARTCHAR y
ENCODING 121
SWIDTH 500 0
DWIDTH 7 0
BBX 7 11 0 -6
BITMAP
82
82
44
44
24
28
18
10
10
30
60
ENDCHAR
STARTCHAR z
ENCODING 122
SWIDTH 500 0
DWIDTH 7 0
BBX 6 8 0 -3
BITMAP
fc
04
08
10
20
40
80
fc
ENDCHAR
STARTCHAR braceleft
ENCODING 123
SWIDTH 334 0
DWIDTH 5 0
BBX 5 14 0 -6
BITMAP
18
20
20
20
20
40
80
40
20
20
20
20
20
18
ENDCHAR
STARTCHAR bar
ENCODING 124
SWIDTH 260 0
DWIDTH 3 0
BBX 1 14 1 -6
BITMAP
80
80
80
80
80
80
80
80
80
80
80
80
80
80
ENDCHAR
STARTCHAR braceright
ENCODING 125
SWIDTH 334 0
DWIDTH 5 0
BBX 5 14 0 -6
BITMAP
c0
20
20
20
20
10
08
10
20
20
20
20
20
c0
ENDCHAR
STARTCHAR asciitilde
ENCODING 126
SWIDTH 584 0
DWIDTH 8 0
BBX 6 3 1 0
BITMAP
64
b4
98
ENDCHAR
STARTCHAR nobreakspace
ENCODING 160
SWIDTH 278 0
DWIDTH 4 0
BBX 1 1 0 -3
BITMAP
00
ENDCHAR
STARTCHAR Aogonek
ENCODING 161
SWIDTH 667 0
DWIDTH 11 0
BBX 9 14 1 -6
BITMAP
0800
0800
1400
1400
2200
2200
4100
7f00
4100
8080
8080
0400
0800
0e00
ENDCHAR
STARTCHAR breve
ENCODING 162
SWIDTH 333 0
DWIDTH 5 0
BBX 5 2 0 6
BITMAP
88
70
ENDCHAR
STARTCHAR Lstroke
ENCODING 163
SWIDTH 556 0
DWIDTH 9 0
BBX 8 11 0 -3
BITMAP
20
20
20
28
30
60
a0
20
20
20
3f
ENDCHAR
STARTCHAR currency
ENCODING 164
SWIDTH 556 0
DWIDTH 8 0
BBX 6 6 1 -1
BITMAP
84
78
48
48
78
84
ENDCHAR
STARTCHAR Lcaron
ENCODING 165
SWIDTH 556 0
DWIDTH 8 0
BBX 6 12 1 -3
BITMAP
30
90
a0
80
80
80
80
80
80
80
80
fc
ENDCHAR
STARTCHAR Sacute
ENCODING 166
SWIDTH 667 0
DWIDTH 9 0
BBX 7 14 1 -3
BITMAP
08
10
00
38
c6
82
80
60
18
06
02
82
c6
38
ENDCHAR
STARTCHAR section
ENCODING 167
SWIDTH 556 0
DWIDTH 8 0
BBX 5 14 2 -6
BITMAP
70
d8
88
c0
70
98
88
88
c8
70
18
88
d8
70
ENDCHAR
STARTCHAR diaeresis
ENCODING 168
SWIDTH 333 0
DWIDTH 5 0
BBX 5 1 0 6
BITMAP
d8
ENDCHAR
STARTCHAR Scaron
ENCODING 169
SWIDTH 667 0
DWIDTH 9 0
BBX 7 14 1 -3
BITMAP
28
10
00
38
c6
82
80
60
18
06
02
82
c6
38
ENDCHAR
STARTCHAR Scedilla
ENCODING 170
SWIDTH 667 0
DWIDTH 9 0
BBX 7 14 1 -6
BITMAP
38
c6
82
80
60
18
06
02
82
c6
38
08
24
18
ENDCHAR
STARTCHAR Tcaron
ENCODING 171
SWIDTH 611 0
DWIDTH 9 0
BBX 9 14 0 -3
BITMAP
1400
0800
0000
ff80
0800
0800
0800
0800
0800
0800
0800
0800
0800
0800
ENDCHAR
STARTCHAR Zacute
ENCODING 172
SWIDTH 611 0
DWIDTH 9 0
BBX 7 14 1 -3
BITMAP
08
10
00
fe
02
04
08
18
10
20
60
40
80
fe
ENDCHAR
STARTCHAR hyphen
ENCODING 173
SWIDTH 333 0
DWIDTH 5 0
BBX 4 1 0 1
BITMAP
f0
ENDCHAR
STARTCHAR Zcaron
ENCODING 174
SWIDTH 611 0
DWIDTH 9 0
BBX 7 14 1 -3
BITMAP
28
10
00
fe
02
04
08
18
10
20
60
40
80
fe
ENDCHAR
STARTCHAR Zabovedot
ENCODING 175
SWIDTH 611 0
DWIDTH 9 0
BBX 7 13 1 -3
BITMAP
18
00
fe
02
04
08
18
10
20
60
40
80
fe
ENDCHAR
STARTCHAR degree
ENCODING 176
SWIDTH 400 0
DWIDTH 6 0
BBX 4 4 1 3
BITMAP
60
90
90
60
ENDCHAR
STARTCHAR aogonek
ENCODING 177
SWIDTH 556 0
DWIDTH 8 0
BBX 7 11 1 -6
BITMAP
78
cc
04
7c
c4
84
cc
76
04
08
0e
ENDCHAR
STARTCHAR ogonek
ENCODING 178
SWIDTH 333 0
DWIDTH 5 0
BBX 3 3 2 -6
BITMAP
40
80
e0
ENDCHAR
STARTCHAR lstroke
ENCODING 179
SWIDTH 222 0
DWIDTH 3 0
BBX 3 11 0 -3
BITMAP
40
40
40
40
60
c0
40
40
40
40
40
ENDCHAR
STARTCHAR acute
ENCODING 180
SWIDTH 333 0
DWIDTH 5 0
BBX 2 2 2 6
BITMAP
40
80
ENDCHAR
STARTCHAR lcaron
ENCODING 181
SWIDTH 411 0
DWIDTH 6 0
BBX 4 12 1 -3
BITMAP
30
90
a0
80
80
80
80
80
80
80
80
80
ENDCHAR
STARTCHAR sacute
ENCODING 182
SWIDTH 500 0
DWIDTH 8 0
BBX 6 11 1 -3
BITMAP
10
20
00
78
84
80
78
0c
04
84
78
ENDCHAR
STARTCHAR caron
ENCODING 183
SWIDTH 333 0
DWIDTH 5 0
BBX 3 2 1 6
BITMAP
a0
40
ENDCHAR
STARTCHAR cedilla
ENCODING 184
SWIDTH 333 0
DWIDTH 5 0
BBX 4 3 0 -6
BITMAP
20
90
60
ENDCHAR
STARTCHAR scaron
ENCODING 185
SWIDTH 500 0
DWIDTH 8 0
BBX 6 11 1 -3
BITMAP
50
20
00
78
84
80
78
0c
04
84
78
ENDCHAR
STARTCHAR scedilla
ENCODING 186
SWIDTH 500 0
DWIDTH 8 0
BBX 6 11 1 -6
BITMAP
78
84
80
78
0c
04
84
78
10
48
30
ENDCHAR
STARTCHAR tcaron
ENCODING 187
SWIDTH 342 0
DWIDTH 5 0
BBX 5 12 0 -3
BITMAP
18
08
50
40
f0
40
40
40
40
40
40
30
ENDCHAR
STARTCHAR zacute
ENCODING 188
SWIDTH 500 0
DWIDTH 7 0
BBX 6 11 0 -3
BITMAP
10
20
00
fc
04
08
10
20
40
80
fc
ENDCHAR
STARTCHAR doubleacute
ENCODING 189
SWIDTH 333 0
DWIDTH 5 0
BBX 5 3 0 5
BITMAP
28
50
a0
ENDCHAR
STARTCHAR zcaron
ENCODING 190
SWIDTH 500 0
DWIDTH 7 0
BBX 6 11 0 -3
BITMAP
50
20
00
fc
04
08
10
20
40
80
fc
ENDCHAR
STARTCHAR zabovedot
ENCODING 191
SWIDTH 500 0
DWIDTH 7 0
BBX 6 10 0 -3
BITMAP
30
00
fc
04
08
10
20
40
80
fc
ENDCHAR
STARTCHAR Racute
ENCODING 192
SWIDTH 722 0
DWIDTH 9 0
BBX 7 14 1 -3
BITMAP
08
10
00
fc
86
82
82
84
f8
84
82
82
82
82
ENDCHAR
STARTCHAR Aacute
ENCODING 193
SWIDTH 667 0
DWIDTH 11 0
BBX 9 14 1 -3
BITMAP
0400
0800
0000
0800
0800
1400
1400
2200
2200
4100
7f00
4100
8080
8080
ENDCHAR
STARTCHAR Acircumflex
ENCODING 194
SWIDTH 667 0
DWIDTH 11 0
BBX 9 14 1 -3
BITMAP
0800
1400
0000
0800
0800
1400
1400
2200
2200
4100
7f00
4100
8080
8080
ENDCHAR
STARTCHAR Abreve
ENCODING 195
SWIDTH 667 0
DWIDTH 11 0
BBX 9 14 1 -3
BITMAP
2200
1c00
0000
0800
0800
1400
1400
2200
2200
4100
7f00
4100
8080
8080
ENDCHAR
STARTCHAR Adiaeresis
ENCODING 196
SWIDTH 667 0
DWIDTH 11 0
BBX 9 13 1 -3
BITMAP
3600
0000
0800
0800
1400
1400
2200
2200
4100
7f00
4100
8080
8080
ENDCHAR
STARTCHAR Lacute
ENCODING 197
SWIDTH 556 0
DWIDTH 8 0
BBX 6 14 1 -3
BITMAP
40
80
00
80
80
80
80
80
80
80
80
80
80
fc
ENDCHAR
STARTCHAR Cacute
ENCODING 198
SWIDTH 722 0
DWIDTH 10 0
BBX 8 14 1 -3
BITMAP
04
08
00
1c
63
41
80
80
80
80
80
41
63
1c
ENDCHAR
STARTCHAR Ccedilla
ENCODING 199
SWIDTH 722 0
DWIDTH 10 0
BBX 8 14 1 -6
BITMAP
1c
63
41
80
80
80
80
80
41
63
1c
08
24
18
ENDCHAR
STARTCHAR Ccaron
ENCODING 200
SWIDTH 722 0
DWIDTH 10 0
BBX 8 14 1 -3
BITMAP
14
08
00
1c
63
41
80
80
80
80
80
41
63
1c
ENDCHAR
STARTCHAR Eacute
ENCODING 201
SWIDTH 667 0
DWIDTH 9 0
BBX 7 14 1 -3
BITMAP
08
10
00
fe
80
80
80
80
fc
80
80
80
80
fe
ENDCHAR
STARTCHAR Eogonek
ENCODING 202
SWIDTH 667 0
DWIDTH 9 0
BBX 8 14 0 -6
BITMAP
7f
40
40
40
40
7e
40
40
40
40
7f
40
80
e0
ENDCHAR
STARTCHAR Ediaeresis
ENCODING 203
SWIDTH 667 0
DWIDTH 9 0
BBX 7 13 1 -3
BITMAP
6c
00
fe
80
80
80
80
fc
80
80
80
80
fe
ENDCHAR
STARTCHAR Ecaron
ENCODING 204
SWIDTH 667 0
DWIDTH 9 0
BBX 7 14 1 -3
BITMAP
28
10
00
fe
80
80
80
80
fc
80
80
80
80
fe
ENDCHAR
STARTCHAR Iacute
ENCODING 205
SWIDTH 278 0
DWIDTH 5 0
BBX 2 14 2 -3
BITMAP
40
80
00
80
80
80
80
80
80
80
80
80
80
80
ENDCHAR
STARTCHAR Icircumflex
ENCODING 206
SWIDTH 278 0
DWIDTH 5 0
BBX 3 14 1 -3
BITMAP
40
a0
00
40
40
40
40
40
40
40
40
40
40
40
ENDCHAR
STARTCHAR Dcaron
ENCODING 207
SWIDTH 722 0
DWIDTH 10 0
BBX 8 14 1 -3
BITMAP
28
10
00
f8
86
82
81
81
81
81
81
82
86
f8
ENDCHAR
STARTCHAR Dstroke
ENCODING 208
SWIDTH 722 0
DWIDTH 10 0
BBX 9 11 0 -3
BITMAP
7c00
4300
4100
4080
4080
f080
4080
4080
4100
4300
7c00
ENDCHAR
STARTCHAR Nacute
ENCODING 209
SWIDTH 722 0
DWIDTH 10 0
BBX 8 14 1 -3
BITMAP
08
10
00
c1
c1
a1
91
91
89
89
85
85
83
83
ENDCHAR
STARTCHAR Ncaron
ENCODING 210
SWIDTH 722 0
DWIDTH 10 0
BBX 8 14 1 -3
BITMAP
28
10
00
c1
c1
a1
91
91
89
89
85
85
83
83
ENDCHAR
STARTCHAR Oacute
ENCODING 211
SWIDTH 778 0
DWIDTH 11 0
BBX 9 14 1 -3
BITMAP
0400
0800
0000
1c00
6300
4100
8080
8080
8080
8080
8080
4100
6300
1c00
ENDCHAR
STARTCHAR Ocircumflex
ENCODING 212
SWIDTH 778 0
DWIDTH 11 0
BBX 9 14 1 -3
BITMAP
0800
1400
0000
1c00
6300
4100
8080
8080
8080
8080
8080
4100
6300
1c00
ENDCHAR
STARTCHAR Odoubleacute
ENCODING 213
SWIDTH 778 0
DWIDTH 11 0
BBX 9 15 1 -3
BITMAP
0500
0a00
1400
0000
1c00
6300
4100
8080
8080
8080
8080
8080
4100
6300
1c00
ENDCHAR
STARTCHAR Odiaeresis
ENCODING 214
SWIDTH 778 0
DWIDTH 11 0
BBX 9 13 1 -3
BITMAP
3600
0000
1c00
6300
4100
8080
8080
8080
8080
8080
4100
6300
1c00
ENDCHAR
STARTCHAR multiply
ENCODING 215
SWIDTH 584 0
DWIDTH 9 0
BBX 7 7 1 -2
BITMAP
82
44
28
10
28
44
82
ENDCHAR
STARTCHAR Rcaron
ENCODING 216
SWIDTH 722 0
DWIDTH 9 0
BBX 7 14 1 -3
BITMAP
28
10
00
fc
86
82
82
84
f8
84
82
82
82
82
ENDCHAR
STARTCHAR Uring
ENCODING 217
SWIDTH 722 0
DWIDTH 10 0
BBX 8 15 1 -3
BITMAP
18
24
18
00
81
81
81
81
81
81
81
81
81
42
3c
ENDCHAR
STARTCHAR Uacute
ENCODING 218
SWIDTH 722 0
DWIDTH 10 0
BBX 8 14 1 -3
BITMAP
04
08
00
81
81
81
81
81
81
81
81
81
42
3c
ENDCHAR
STARTCHAR Udoubleacute
ENCODING 219
SWIDTH 722 0
DWIDTH 10 0
BBX 8 15 1 -3
BITMAP
0a
14
28
00
81
81
81
81
81
81
81
81
81
42
3c
ENDCHAR
STARTCHAR Udiaeresis
ENCODING 220
SWIDTH 722 0
DWIDTH 10 0
BBX 8 13 1 -3
BITMAP
66
00
81
81
81
81
81
81
81
81
81
42
3c
ENDCHAR
STARTCHAR Yacute
ENCODING 221
SWIDTH 667 0
DWIDTH 9 0
BBX 9 14 0 -3
BITMAP
0400
0800
0000
8080
4100
4100
2200
2200
1400
0800
0800
0800
0800
0800
ENDCHAR
STARTCHAR Tcedilla
ENCODING 222
SWIDTH 611 0
DWIDTH 9 0
BBX 9 14 0 -6
BITMAP
ff80
0800
0800
0800
0800
0800
0800
0800
0800
0800
0800
0400
1200
0c00
ENDCHAR
STARTCHAR ssharp
ENCODING 223
SWIDTH 611 0
DWIDTH 7 0
BBX 5 11 1 -3
BITMAP
70
88
88
88
b0
90
88
88
88
88
b0
ENDCHAR
STARTCHAR racute
ENCODING 224
SWIDTH 333 0
DWIDTH 5 0
BBX 4 11 1 -3
BITMAP
20
40
00
b0
c0
80
80
80
80
80
80
ENDCHAR
STARTCHAR aacute
ENCODING 225
SWIDTH 556 0
DWIDTH 8 0
BBX 7 11 1 -3
BITMAP
08
10
00
78
cc
04
7c
c4
84
cc
76
ENDCHAR
STARTCHAR acircumflex
ENCODING 226
SWIDTH 556 0
DWIDTH 8 0
BBX 7 11 1 -3
BITMAP
10
28
00
78
cc
04
7c
c4
84
cc
76
ENDCHAR
STARTCHAR abreve
ENCODING 227
SWIDTH 556 0
DWIDTH 8 0
BBX 7 11 1 -3
BITMAP
88
70
00
78
cc
04
7c
c4
84
cc
76
ENDCHAR
STARTCHAR adiaeresis
ENCODING 228
SWIDTH 556 0
DWIDTH 8 0
BBX 7 10 1 -3
BITMAP
6c
00
78
cc
04
7c
c4
84
cc
76
ENDCHAR
STARTCHAR lacute
ENCODING 229
SWIDTH 222 0
DWIDTH 3 0
BBX 2 14 1 -3
BITMAP
40
80
00
80
80
80
80
80
80
80
80
80
80
80
ENDCHAR
STARTCHAR cacute
ENCODING 230
SWIDTH 500 0
DWIDTH 8 0
BBX 6 11 1 -3
BITMAP
10
20
00
78
cc
80
80
80
84
cc
78
ENDCHAR
STARTCHAR ccedilla
ENCODING 231
SWIDTH 500 0
DWIDTH 8 0
BBX 6 11 1 -6
BITMAP
78
cc
80
80
80
84
cc
78
10
48
30
ENDCHAR
STARTCHAR ccaron
ENCODING 232
SWIDTH 500 0
DWIDTH 8 0
BBX 6 11 1 -3
BITMAP
50
20
00
78
cc
80
80
80
84
cc
78
ENDCHAR
STARTCHAR eacute
ENCODING 233
SWIDTH 556 0
DWIDTH 8 0
BBX 6 11 1 -3
BITMAP
10
20
00
78
cc
84
fc
80
80
cc
78
ENDCHAR
STARTCHAR eogonek
ENCODING 234
SWIDTH 556 0
DWIDTH 8 0
BBX 6 11 1 -6
BITMAP
78
cc
84
fc
80
80
cc
78
20
40
70
ENDCHAR
STARTCHAR ediaeresis
ENCODING 235
SWIDTH 556 0
DWIDTH 8 0
BBX 6 10 1 -3
BITMAP
cc
00
78
cc
84
fc
80
80
cc
78
ENDCHAR
STARTCHAR ecaron
ENCODING 236
SWIDTH 556 0
DWIDTH 8 0
BBX 6 11 1 -3
BITMAP
50
20
00
78
cc
84
fc
80
80
cc
78
ENDCHAR
STARTCHAR iacute
ENCODING 237
SWIDTH 278 0
DWIDTH 3 0
BBX 2 11 1 -3
BITMAP
40
80
00
80
80
80
80
80
80
80
80
ENDCHAR
STARTCHAR icircumflex
ENCODING 238
SWIDTH 278 0
DWIDTH 3 0
BBX 3 11 0 -3
BITMAP
40
a0
00
40
40
40
40
40
40
40
40
ENDCHAR
STARTCHAR dcaron
ENCODING 239
SWIDTH 754 0
DWIDTH 11 0
BBX 9 12 1 -3
BITMAP
0180
0480
0500
0400
7400
cc00
8400
8400
8400
8400
cc00
7400
ENDCHAR
STARTCHAR dstroke
ENCODING 240
SWIDTH 685 0
DWIDTH 10 0
BBX 8 11 1 -3
BITMAP
04
1f
04
74
cc
84
84
84
84
cc
74
ENDCHAR
STARTCHAR nacute
ENCODING 241
SWIDTH 556 0
DWIDTH 8 0
BBX 6 11 1 -3
BITMAP
10
20
00
b8
cc
84
84
84
84
84
84
ENDCHAR
STARTCHAR ncaron
ENCODING 242
SWIDTH 556 0
DWIDTH 8 0
BBX 6 11 1 -3
BITMAP
50
20
00
b8
cc
84
84
84
84
84
84
ENDCHAR
STARTCHAR oacute
ENCODING 243
SWIDTH 556 0
DWIDTH 8 0
BBX 6 11 1 -3
BITMAP
08
10
00
78
cc
84
84
84
84
cc
78
ENDCHAR
STARTCHAR ocircumflex
ENCODING 244
SWIDTH 556 0
DWIDTH 8 0
BBX 6 11 1 -3
BITMAP
30
48
00
78
cc
84
84
84
84
cc
78
ENDCHAR
STARTCHAR odoubleacute
ENCODING 245
SWIDTH 556 0
DWIDTH 8 0
BBX 6 12 1 -3
BITMAP
14
28
50
00
78
cc
84
84
84
84
cc
78
ENDCHAR
STARTCHAR odiaeresis
ENCODING 246
SWIDTH 556 0
DWIDTH 8 0
BBX 6 10 1 -3
BITMAP
cc
00
78
cc
84
84
84
84
cc
78
ENDCHAR
STARTCHAR division
ENCODING 247
SWIDTH 584 0
DWIDTH 9 0
BBX 7 7 1 -2
BITMAP
10
10
00
fe
00
10
10
ENDCHAR
STARTCHAR rcaron
ENCODING 248
SWIDTH 333 0
DWIDTH 5 0
BBX 4 11 1 -3
BITMAP
a0
40
00
b0
c0
80
80
80
80
80
80
ENDCHAR
STARTCHAR uring
ENCODING 249
SWIDTH 556 0
DWIDTH 8 0
BBX 6 12 1 -3
BITMAP
30
48
30
00
84
84
84
84
84
84
cc
74
ENDCHAR
STARTCHAR uacute
ENCODING 250
SWIDTH 556 0
DWIDTH 8 0
BBX 6 11 1 -3
BITMAP
08
10
00
84
84
84
84
84
84
cc
74
ENDCHAR
STARTCHAR udoubleacute
ENCODING 251
SWIDTH 556 0
DWIDTH 8 0
BBX 6 12 1 -3
BITMAP
14
28
50
00
84
84
84
84
84
84
cc
74
ENDCHAR
STARTCHAR udiaeresis
ENCODING 252
SWIDTH 556 0
DWIDTH 8 0
BBX 6 10 1 -3
BITMAP
cc
00
84
84
84
84
84
84
cc
74
ENDCHAR
STARTCHAR yacute
ENCODING 253
SWIDTH 500 0
DWIDTH 7 0
BBX 7 14 0 -6
BITMAP
08
10
00
82
c2
44
44
24
28
18
10
10
30
60
ENDCHAR
STARTCHAR tcedilla
ENCODING 254
SWIDTH 278 0
DWIDTH 4 0
BBX 4 13 0 -6
BITMAP
40
40
f0
40
40
40
40
40
40
30
20
90
60
ENDCHAR
STARTCHAR abovedot
ENCODING 255
SWIDTH 333 0
DWIDTH 4 0
BBX 2 1 1 6
BITMAP
c0
ENDCHAR
ENDFONT
